# xmcd
#
# Track frame offsets: 
#        150
#        13387
#        24300
#        37560
#        52012
#        73372
#        84810
#        99954
#        115170
#        123917
#
# Disc length: 1855 seconds
#
# Revision: 1
# Processed by: cddbd v1.5.2PL0 Copyright (c) Steve Scherf et al.
# Submitted via: ExactAudioCopy v0.99pb3
#
DISCID=74073d0a
DTITLE=Holly Golightly and Dan Melchior - Desperate Little Town
DYEAR=2000
DGENRE=Blues
TTITLE0=Directly From My Heart
TTITLE1=I'll Follow Her
TTITLE2=Why Don't You Love Me
TTITLE3=All I Want
TTITLE4=Don't Pass The Hat Around
TTITLE5=Lifering
TTITLE6=I'm Feeling Good
TTITLE7=Further On Up The Road
TTITLE8=Desperate Little Town
TTITLE9=One Of Mine
EXTD=
EXTT0=
EXTT1=
EXTT2=
EXTT3=
EXTT4=
EXTT5=
EXTT6=
EXTT7=
EXTT8=
EXTT9=
PLAYORDER=
